<svg width="32" height="32" viewBox="0 0 32 32" fill="none" xmlns="http://www.w3.org/2000/svg">
<circle cx="16" cy="16" r="16" fill="#556EE6"/>
<path d="M15.9999 9.36011C12.3333 9.36011 9.33325 12.3534 9.33325 16.0401C9.33325 19.3734 11.7733 22.1401 14.9599 22.6401V17.9734H13.2666V16.0401H14.9599V14.5668C14.9599 12.8934 15.9533 11.9734 17.4799 11.9734C18.2066 11.9734 18.9666 12.1001 18.9666 12.1001V13.7468H18.1266C17.2999 13.7468 17.0399 14.2601 17.0399 14.7868V16.0401H18.8933L18.5933 17.9734H17.0399V22.6401C18.6109 22.392 20.0414 21.5905 21.0732 20.3801C22.105 19.1698 22.6702 17.6305 22.6666 16.0401C22.6666 12.3534 19.6666 9.36011 15.9999 9.36011Z" fill="white"/>
</svg>
