<svg width="32" height="32" viewBox="0 0 32 32" fill="none" xmlns="http://www.w3.org/2000/svg">
<circle cx="16" cy="16" r="16" fill="#E83E8C"/>
<path d="M13.1999 9.33325H18.7999C20.9333 9.33325 22.6666 11.0666 22.6666 13.1999V18.7999C22.6666 19.8254 22.2592 20.8089 21.5341 21.5341C20.8089 22.2592 19.8254 22.6666 18.7999 22.6666H13.1999C11.0666 22.6666 9.33325 20.9333 9.33325 18.7999V13.1999C9.33325 12.1744 9.74063 11.1909 10.4658 10.4658C11.1909 9.74063 12.1744 9.33325 13.1999 9.33325ZM13.0666 10.6666C12.4301 10.6666 11.8196 10.9194 11.3695 11.3695C10.9194 11.8196 10.6666 12.4301 10.6666 13.0666V18.9333C10.6666 20.2599 11.7399 21.3333 13.0666 21.3333H18.9333C19.5698 21.3333 20.1802 21.0804 20.6303 20.6303C21.0804 20.1802 21.3333 19.5698 21.3333 18.9333V13.0666C21.3333 11.7399 20.2599 10.6666 18.9333 10.6666H13.0666ZM19.4999 11.6666C19.7209 11.6666 19.9329 11.7544 20.0892 11.9107C20.2455 12.0669 20.3333 12.2789 20.3333 12.4999C20.3333 12.7209 20.2455 12.9329 20.0892 13.0892C19.9329 13.2455 19.7209 13.3333 19.4999 13.3333C19.2789 13.3333 19.0669 13.2455 18.9107 13.0892C18.7544 12.9329 18.6666 12.7209 18.6666 12.4999C18.6666 12.2789 18.7544 12.0669 18.9107 11.9107C19.0669 11.7544 19.2789 11.6666 19.4999 11.6666ZM15.9999 12.6666C16.884 12.6666 17.7318 13.0178 18.3569 13.6429C18.9821 14.268 19.3333 15.1159 19.3333 15.9999C19.3333 16.884 18.9821 17.7318 18.3569 18.3569C17.7318 18.9821 16.884 19.3333 15.9999 19.3333C15.1159 19.3333 14.268 18.9821 13.6429 18.3569C13.0178 17.7318 12.6666 16.884 12.6666 15.9999C12.6666 15.1159 13.0178 14.268 13.6429 13.6429C14.268 13.0178 15.1159 12.6666 15.9999 12.6666ZM15.9999 13.9999C15.4695 13.9999 14.9608 14.2106 14.5857 14.5857C14.2106 14.9608 13.9999 15.4695 13.9999 15.9999C13.9999 16.5304 14.2106 17.0391 14.5857 17.4141C14.9608 17.7892 15.4695 17.9999 15.9999 17.9999C16.5304 17.9999 17.0391 17.7892 17.4141 17.4141C17.7892 17.0391 17.9999 16.5304 17.9999 15.9999C17.9999 15.4695 17.7892 14.9608 17.4141 14.5857C17.0391 14.2106 16.5304 13.9999 15.9999 13.9999Z" fill="white"/>
</svg>
