<svg width="124" height="28" viewBox="0 0 124 28" fill="none" xmlns="http://www.w3.org/2000/svg">
<path d="M18.6438 21.0334H9.2726C8.90188 21.0334 8.57234 21.2394 8.38697 21.5483L6.1626 25.5852C5.97723 25.8941 6.10081 26.306 6.43035 26.4914C6.53333 26.5532 6.63631 26.5738 6.73929 26.5738H18.685C20.1473 26.5738 21.3625 25.441 21.4449 23.9787C21.5479 22.3516 20.2503 21.0334 18.6438 21.0334Z" fill="white"/>
<path d="M15.8638 0.41677C14.5663 -0.386476 12.8362 0.0048495 12.0535 1.3024C12.0535 1.323 12.0535 1.323 12.033 1.323L0.416771 22.331C-0.386476 23.6285 0.00484842 25.338 1.3024 26.1619C1.73492 26.4296 2.24982 26.5738 2.76472 26.5738C3.73274 26.5738 4.61837 26.0795 5.11267 25.2556L16.7289 4.24764C17.5527 2.92949 17.1614 1.22002 15.8638 0.41677Z" fill="#03A8B5"/>
<path d="M28.6741 22.3516L23.7517 13.4953C22.9484 12.2183 21.2183 11.8064 19.9414 12.6097C18.6644 13.3923 18.2525 15.0812 19.0146 16.3787L23.937 25.2556C24.4313 26.0795 25.317 26.5738 26.285 26.5738C27.5825 26.5738 28.6947 25.6882 29.0037 24.4524C29.1684 23.7109 29.0448 22.9901 28.6741 22.3516ZM18.3555 6.71918C16.8314 6.71918 15.6162 7.95494 15.6162 9.45846C15.6162 10.962 16.852 12.1977 18.3555 12.1977C19.8796 12.1977 21.0948 10.962 21.0948 9.45846C21.136 7.95494 19.9002 6.71918 18.3555 6.71918Z" fill="#03A8B5"/>
<path d="M118.182 22.4718C116.468 22.4718 115.12 21.9932 114.136 21.0361C113.159 20.0722 112.67 18.767 112.67 17.1204C112.67 15.4203 113.179 14.0917 114.196 13.1345C115.213 12.1706 116.589 11.6887 118.323 11.6887C120.029 11.6887 121.368 12.1706 122.339 13.1345C123.309 14.0917 123.794 15.3601 123.794 16.9397C123.794 18.6465 123.292 19.9952 122.288 20.9859C121.291 21.9765 119.922 22.4718 118.182 22.4718ZM118.262 14.1184C117.513 14.1184 116.93 14.3761 116.515 14.8915C116.1 15.4069 115.893 16.1365 115.893 17.0803C115.893 19.0548 116.689 20.0421 118.282 20.0421C119.802 20.0421 120.561 19.028 120.561 16.9999C120.561 15.0789 119.795 14.1184 118.262 14.1184Z" fill="white"/>
<path d="M110.632 21.0461C110.632 22.9537 110.08 24.4296 108.976 25.4738C107.871 26.5247 106.271 27.0501 104.176 27.0501C102.791 27.0501 101.693 26.8526 100.883 26.4577V23.7871C101.941 24.4029 103.008 24.7108 104.086 24.7108C105.157 24.7108 105.987 24.4263 106.576 23.8573C107.165 23.2951 107.46 22.5287 107.46 21.5582V20.7449H107.419C106.696 21.8962 105.629 22.4718 104.217 22.4718C102.905 22.4718 101.864 22.01 101.094 21.0863C100.324 20.1626 99.9395 18.9243 99.9395 17.3714C99.9395 15.6311 100.368 14.249 101.225 13.2249C102.081 12.2008 103.209 11.6887 104.608 11.6887C105.86 11.6887 106.797 12.1706 107.419 13.1345H107.46V11.9397H110.632V21.0461ZM107.5 17.2811V16.4678C107.5 15.8186 107.306 15.2663 106.917 14.8112C106.536 14.3494 106.037 14.1184 105.421 14.1184C104.719 14.1184 104.166 14.3929 103.765 14.9417C103.363 15.4906 103.162 16.2637 103.162 17.261C103.162 18.1177 103.353 18.7971 103.735 19.2991C104.116 19.7944 104.638 20.0421 105.301 20.0421C105.957 20.0421 106.486 19.7911 106.887 19.2891C107.296 18.7804 107.5 18.111 107.5 17.2811Z" fill="white"/>
<path d="M98.0322 22.2208H94.8696V16.508C94.8696 14.9149 94.3006 14.1184 93.1628 14.1184C92.6139 14.1184 92.1621 14.3293 91.8073 14.751C91.4526 15.1726 91.2752 15.7081 91.2752 16.3574V22.2208H88.1025V11.9397H91.2752V13.5662H91.3154C92.0717 12.3146 93.1728 11.6887 94.6186 11.6887C96.8943 11.6887 98.0322 13.101 98.0322 15.9257V22.2208Z" fill="white"/>
<path d="M83.8654 10.3132C83.3299 10.3132 82.8915 10.1559 82.5501 9.84132C82.2088 9.52004 82.0381 9.12848 82.0381 8.66663C82.0381 8.1914 82.2088 7.80318 82.5501 7.50198C82.8915 7.20077 83.3299 7.05017 83.8654 7.05017C84.4076 7.05017 84.846 7.20077 85.1806 7.50198C85.522 7.80318 85.6927 8.1914 85.6927 8.66663C85.6927 9.14856 85.522 9.54347 85.1806 9.85136C84.846 10.1593 84.4076 10.3132 83.8654 10.3132ZM85.4316 22.2208H82.259V11.9397H85.4316V22.2208Z" fill="white"/>
<path d="M79.7491 22.2208H76.5864V16.3574C76.5864 14.8647 76.0376 14.1184 74.9398 14.1184C74.4178 14.1184 73.9927 14.3427 73.6647 14.7911C73.3368 15.2396 73.1728 15.7985 73.1728 16.4678V22.2208H70.0001V16.2971C70.0001 14.8447 69.4613 14.1184 68.3836 14.1184C67.8415 14.1184 67.4064 14.3326 67.0784 14.761C66.7571 15.1894 66.5965 15.7717 66.5965 16.508V22.2208H63.4238V11.9397H66.5965V13.5461H66.6367C66.9646 12.9973 67.4231 12.5522 68.0122 12.2108C68.6079 11.8627 69.2571 11.6887 69.9599 11.6887C71.4124 11.6887 72.4064 12.3279 72.9419 13.6064C73.725 12.3279 74.8763 11.6887 76.3957 11.6887C78.6313 11.6887 79.7491 13.0676 79.7491 15.8252V22.2208Z" fill="white"/>
<path d="M60.7527 22.2208H57.58V20.8052H57.5399C56.817 21.9163 55.7561 22.4718 54.3572 22.4718C53.072 22.4718 52.0379 22.02 51.2548 21.1164C50.4716 20.2061 50.0801 18.9377 50.0801 17.3112C50.0801 15.6111 50.5118 14.249 51.3753 13.2249C52.2387 12.2008 53.3699 11.6887 54.7688 11.6887C56.0941 11.6887 57.0178 12.164 57.5399 13.1144H57.58V7H60.7527V22.2208ZM57.6403 17.2208V16.4478C57.6403 15.7784 57.4462 15.2229 57.058 14.7811C56.6697 14.3393 56.1644 14.1184 55.5419 14.1184C54.8391 14.1184 54.2902 14.3962 53.8953 14.9518C53.5004 15.5006 53.303 16.257 53.303 17.2208C53.303 18.1245 53.4937 18.8206 53.8752 19.3092C54.2568 19.7978 54.7855 20.0421 55.4616 20.0421C56.1041 20.0421 56.6262 19.7844 57.0278 19.269C57.4361 18.7536 57.6403 18.0709 57.6403 17.2208Z" fill="white"/>
<path d="M49.2068 22.2208H45.6726L44.6486 19.018H39.5281L38.514 22.2208H35L40.2409 7.82324H44.0863L49.2068 22.2208ZM43.9056 16.528L42.3594 11.6887C42.2456 11.3272 42.1653 10.8955 42.1184 10.3935H42.0381C42.0047 10.8152 41.921 11.2335 41.7871 11.6485L40.2209 16.528H43.9056Z" fill="white"/>
</svg>
