<svg width="800" height="524" viewBox="0 0 800 524" fill="none" xmlns="http://www.w3.org/2000/svg">
<path d="M777.03 522.218H0.999996" stroke="#1E1F2D" stroke-linecap="round" stroke-linejoin="round"/>
<path d="M644.214 308.301C632.955 317.683 636.708 372.852 601.505 349.114C566.303 325.377 626.275 311.322 622.86 297.868C618.056 279.103 538.85 301.621 552.136 265.593C565.421 229.565 612.783 283.757 625.224 270.34C636.67 257.993 579.663 213.371 606.234 205.79C632.805 198.209 627.157 262.741 644.214 262.741C657.537 262.741 655.041 201.042 679.529 222.866C704.017 244.689 650.5 266.212 657.499 279.76C662.828 290.062 704.955 264.636 703.06 288.373C701.164 312.11 656.223 298.375 644.214 308.301Z" fill="#FF965D"/>
<path d="M636.708 280.079C636.708 280.079 662.303 311.097 659.45 395.631" stroke="#1E1F2D" stroke-linecap="round" stroke-linejoin="round"/>
<path d="M586.738 324.045C591.279 314.906 628.94 308.658 607.379 288.823C585.818 268.989 585.893 311.51 576.305 311.341C562.888 311.116 565.496 254.259 543.354 268.933C521.212 283.607 565.234 306.819 558.178 317.308C551.704 326.972 512.636 295.748 511.754 314.831C510.872 333.915 553.374 319.785 556.095 331.288C558.216 340.239 516.333 348.382 534.91 361.311C553.487 374.24 559.435 334.909 569.643 337.461C577.431 339.338 567.035 371.782 582.685 366.715C598.334 361.649 581.972 333.615 586.738 324.045Z" fill="#FF965D"/>
<path opacity="0.3" d="M586.738 324.045C591.279 314.906 628.94 308.658 607.379 288.823C585.818 268.989 585.893 311.51 576.305 311.341C562.888 311.116 565.496 254.259 543.354 268.933C521.212 283.607 565.234 306.819 558.178 317.308C551.704 326.972 512.636 295.748 511.754 314.831C510.872 333.915 553.374 319.785 556.095 331.288C558.216 340.239 516.333 348.382 534.91 361.311C553.487 374.24 559.435 334.909 569.643 337.461C577.431 339.338 567.035 371.782 582.685 366.715C598.334 361.649 581.972 333.615 586.738 324.045Z" fill="#1E1F2D"/>
<path d="M567.279 324.439C567.279 324.439 640.217 316.839 647.423 395.632" stroke="#1E1F2D" stroke-linecap="round" stroke-linejoin="round"/>
<path d="M706.437 315.901C717.696 325.283 713.943 380.451 749.145 356.714C784.348 332.976 724.357 318.903 727.791 305.468C732.576 286.703 811.801 309.22 798.496 273.192C785.192 237.164 737.868 291.375 725.314 277.94C713.887 265.611 770.875 220.989 744.304 213.389C717.733 205.79 723.457 270.359 706.343 270.359C693.02 270.359 695.497 208.642 671.009 230.484C646.522 252.326 700.057 273.83 693.039 287.378C687.729 297.68 645.583 272.254 647.479 295.973C649.374 319.691 694.484 305.974 706.437 315.901Z" fill="#FF965D"/>
<path opacity="0.3" d="M706.437 315.901C717.696 325.283 713.943 380.451 749.145 356.714C784.348 332.976 724.357 318.903 727.791 305.468C732.576 286.703 811.801 309.22 798.496 273.192C785.192 237.164 737.868 291.375 725.314 277.94C713.887 265.611 770.875 220.989 744.304 213.389C717.733 205.79 723.457 270.359 706.343 270.359C693.02 270.359 695.497 208.642 671.009 230.484C646.522 252.326 700.057 273.83 693.039 287.378C687.729 297.68 645.583 272.254 647.479 295.973C649.374 319.691 694.484 305.974 706.437 315.901Z" fill="white"/>
<path d="M714.506 287.679C714.506 287.679 681.292 332.038 673.693 406.065" stroke="#1E1F2D" stroke-linecap="round" stroke-linejoin="round"/>
<path d="M690.731 521.899H638.94C634.133 521.92 629.494 520.127 625.949 516.879C622.405 513.63 620.216 509.164 619.819 504.373L611.675 408.673C611.463 406.044 611.797 403.4 612.657 400.907C613.516 398.414 614.883 396.126 616.67 394.187C618.458 392.248 620.627 390.7 623.042 389.641C625.457 388.581 628.066 388.034 630.703 388.032H698.875C701.511 388.033 704.119 388.581 706.533 389.641C708.947 390.7 711.115 392.249 712.901 394.188C714.687 396.127 716.052 398.416 716.909 400.909C717.767 403.402 718.098 406.045 717.883 408.673L709.739 504.373C709.348 509.146 707.177 513.599 703.655 516.845C700.134 520.092 695.521 521.896 690.731 521.899Z" fill="#FF965D" stroke="#1E1F2D" stroke-linecap="round" stroke-linejoin="round"/>
<path d="M302.923 384.468C320.243 384.468 370.232 373.209 370.232 373.209H235.614C235.614 373.209 285.622 384.468 302.923 384.468Z" fill="#1E1F2D" stroke="#1E1F2D" stroke-linecap="round" stroke-linejoin="round"/>
<path d="M287.498 378.819H318.347V399.967H287.498V378.819Z" fill="#858585" stroke="#1E1F2D" stroke-linecap="round" stroke-linejoin="round"/>
<path d="M282.938 399.967H322.907V490.882H282.938V399.967Z" fill="#999999" stroke="#1E1F2D" stroke-linecap="round" stroke-linejoin="round"/>
<path d="M227.846 346.206H253.91C251.02 328.305 248.881 310.066 247.567 291.995H221.597C222.835 310.066 224.956 328.305 227.846 346.206Z" fill="#858585" stroke="#1E1F2D" stroke-linecap="round" stroke-linejoin="round"/>
<path d="M188.383 131.858H300.371C313.506 131.858 322.156 142.985 319.604 156.083C312.453 196.095 308.176 236.567 306.807 277.19C306.819 279.961 306.281 282.708 305.224 285.269C304.166 287.831 302.61 290.157 300.646 292.112C298.682 294.067 296.349 295.613 293.783 296.659C291.217 297.705 288.468 298.231 285.697 298.207H191.423C185.564 298.148 179.919 295.998 175.504 292.144C171.09 288.291 168.198 282.988 167.348 277.19C162.803 236.992 161.16 196.518 162.432 156.083C163.051 142.985 175.229 131.858 188.383 131.858Z" fill="#858585" stroke="#1E1F2D" stroke-linecap="round" stroke-linejoin="round"/>
<path d="M182.285 156.083C181.013 196.518 182.656 236.992 187.201 277.19C188.051 282.988 190.943 288.291 195.357 292.144C199.771 295.998 205.417 298.148 211.276 298.207H285.697C288.468 298.231 291.216 297.705 293.783 296.659C296.349 295.613 298.682 294.067 300.646 292.112C302.61 290.157 304.166 287.831 305.224 285.269C306.281 282.708 306.819 279.961 306.807 277.19C308.17 236.568 312.44 196.095 319.586 156.083C322.138 142.948 313.525 131.858 300.352 131.858H208.236C195.082 131.858 182.904 142.985 182.285 156.083Z" fill="#999999" stroke="#1E1F2D" stroke-linecap="round" stroke-linejoin="round"/>
<path d="M235.614 507.207C235.614 507.706 235.725 508.199 235.941 508.65C236.156 509.1 236.47 509.497 236.859 509.81C237.248 510.123 237.702 510.345 238.188 510.46C238.674 510.575 239.179 510.579 239.667 510.472C251.921 507.807 288.605 500.076 302.923 500.076C317.24 500.076 353.944 507.807 366.197 510.472C366.684 510.579 367.189 510.575 367.674 510.461C368.159 510.346 368.612 510.124 369 509.81C369.387 509.496 369.699 509.099 369.912 508.649C370.126 508.198 370.235 507.706 370.232 507.207C370.233 505.201 369.547 503.255 368.286 501.694C367.026 500.134 365.269 499.053 363.307 498.632C348.971 495.554 316.264 488.855 302.923 488.855C289.581 488.855 256.874 495.554 242.538 498.632C240.579 499.056 238.823 500.138 237.563 501.698C236.304 503.258 235.616 505.202 235.614 507.207Z" fill="#1E1F2D" stroke="#1E1F2D" stroke-linecap="round" stroke-linejoin="round"/>
<path d="M370.25 500.452C372.531 500.448 374.761 501.121 376.658 502.385C378.556 503.65 380.036 505.449 380.91 507.555C381.784 509.661 382.014 511.979 381.57 514.216C381.126 516.453 380.028 518.508 378.416 520.12C376.804 521.732 374.749 522.83 372.512 523.274C370.275 523.718 367.957 523.488 365.851 522.614C363.745 521.74 361.946 520.26 360.681 518.362C359.417 516.465 358.744 514.235 358.748 511.954C358.753 508.905 359.966 505.982 362.122 503.826C364.278 501.67 367.201 500.457 370.25 500.452ZM370.25 518.203C371.487 518.207 372.697 517.843 373.727 517.159C374.757 516.475 375.561 515.5 376.037 514.359C376.512 513.217 376.639 511.96 376.4 510.747C376.161 509.533 375.567 508.418 374.694 507.543C373.821 506.667 372.708 506.07 371.495 505.827C370.282 505.585 369.025 505.707 367.882 506.18C366.739 506.652 365.762 507.453 365.075 508.481C364.387 509.509 364.02 510.718 364.02 511.954C364.02 513.608 364.676 515.195 365.844 516.366C367.012 517.537 368.596 518.198 370.25 518.203Z" fill="#858585" stroke="#1E1F2D" stroke-linecap="round" stroke-linejoin="round"/>
<path d="M302.923 500.452C305.207 500.444 307.442 501.116 309.343 502.382C311.245 503.647 312.728 505.45 313.603 507.56C314.478 509.67 314.706 511.993 314.258 514.232C313.81 516.472 312.706 518.529 311.087 520.14C309.467 521.751 307.406 522.845 305.164 523.282C302.922 523.719 300.6 523.479 298.494 522.594C296.389 521.709 294.594 520.217 293.337 518.31C292.081 516.402 291.42 514.164 291.439 511.879C291.463 508.846 292.683 505.946 294.833 503.806C296.983 501.667 299.89 500.461 302.923 500.452ZM302.923 518.203C304.156 518.207 305.363 517.845 306.391 517.164C307.42 516.483 308.223 515.513 308.701 514.376C309.179 513.239 309.31 511.985 309.077 510.774C308.844 509.563 308.258 508.448 307.392 507.569C306.527 506.69 305.42 506.088 304.213 505.837C303.005 505.586 301.75 505.697 300.606 506.158C299.462 506.619 298.48 507.408 297.783 508.426C297.087 509.445 296.708 510.646 296.693 511.879C296.683 512.705 296.837 513.524 297.145 514.289C297.453 515.055 297.91 515.752 298.49 516.34C299.069 516.928 299.759 517.395 300.52 517.715C301.281 518.035 302.097 518.201 302.923 518.203Z" fill="#858585" stroke="#1E1F2D" stroke-linecap="round" stroke-linejoin="round"/>
<path d="M237.021 500.452C239.301 500.452 241.529 501.128 243.424 502.395C245.319 503.661 246.796 505.462 247.668 507.568C248.539 509.675 248.766 511.992 248.32 514.228C247.874 516.463 246.775 518.516 245.162 520.127C243.548 521.737 241.494 522.833 239.258 523.275C237.021 523.718 234.704 523.487 232.599 522.612C230.494 521.737 228.696 520.258 227.433 518.36C226.169 516.463 225.496 514.234 225.5 511.954C225.5 510.442 225.798 508.945 226.377 507.548C226.957 506.151 227.805 504.882 228.876 503.814C229.946 502.746 231.216 501.899 232.614 501.322C234.011 500.745 235.509 500.449 237.021 500.452ZM237.021 518.203C238.257 518.203 239.465 517.836 240.493 517.15C241.52 516.463 242.321 515.487 242.794 514.346C243.267 513.204 243.391 511.947 243.15 510.735C242.909 509.523 242.314 508.41 241.44 507.536C240.566 506.662 239.453 506.067 238.24 505.826C237.028 505.585 235.772 505.708 234.63 506.181C233.488 506.654 232.512 507.455 231.826 508.483C231.139 509.51 230.773 510.718 230.773 511.954C230.773 513.612 231.431 515.201 232.603 516.373C233.775 517.545 235.364 518.203 237.021 518.203Z" fill="#858585" stroke="#1E1F2D" stroke-linecap="round" stroke-linejoin="round"/>
<path d="M268.809 342.566C313.736 343.992 358.706 342.003 403.332 336.618C405.392 336.246 407.509 336.338 409.529 336.887C411.548 337.437 413.42 338.43 415.007 339.795C416.595 341.159 417.858 342.86 418.704 344.775C419.551 346.689 419.96 348.768 419.901 350.86V353.056C419.792 357.666 418.077 362.093 415.052 365.574C412.027 369.054 407.882 371.37 403.332 372.12C358.706 377.497 313.736 379.485 268.809 378.069V342.566Z" fill="#999999" stroke="#1E1F2D" stroke-linecap="round" stroke-linejoin="round"/>
<path d="M198.254 371.538C226.138 375.029 253.778 377.337 281.85 378.538C283.467 378.588 285.078 378.312 286.586 377.725C288.094 377.139 289.468 376.254 290.626 375.124C291.784 373.994 292.702 372.642 293.325 371.149C293.949 369.656 294.264 368.052 294.254 366.434V355.645C294.221 352.348 292.909 349.193 290.595 346.844C288.281 344.495 285.146 343.136 281.85 343.054C253.703 341.834 226.138 339.526 198.254 336.036C196.726 335.749 195.154 335.808 193.653 336.209C192.152 336.61 190.76 337.342 189.579 338.352C188.398 339.362 187.458 340.624 186.829 342.045C186.2 343.466 185.898 345.01 185.944 346.563V357.352C186.035 360.777 187.312 364.063 189.557 366.651C191.802 369.238 194.876 370.966 198.254 371.538Z" fill="#858585" stroke="#1E1F2D" stroke-linecap="round" stroke-linejoin="round"/>
<path d="M384.943 517.509C384.943 511.241 386.312 498.744 393.706 482.513L403.332 447.798L433.355 460.614L424.911 487.204C424.911 487.204 450.713 499.513 460.245 502.835C466.588 505.049 485.577 509.402 484.639 517.546C484.639 518.12 484.526 518.689 484.306 519.219C484.087 519.75 483.765 520.232 483.359 520.638C482.953 521.044 482.471 521.366 481.94 521.586C481.41 521.805 480.841 521.918 480.267 521.918H389.334C388.755 521.921 388.181 521.808 387.646 521.588C387.111 521.367 386.625 521.042 386.216 520.631C385.808 520.221 385.485 519.734 385.266 519.198C385.048 518.662 384.938 518.088 384.943 517.509Z" fill="white" stroke="#1E1F2D" stroke-linecap="round" stroke-linejoin="round"/>
<path d="M401.474 497.186C406.165 500.639 431.179 505.011 424.911 500.001C418.644 494.991 424.911 487.185 424.911 487.185C424.911 487.185 450.713 499.494 460.245 502.816C466.588 505.03 485.577 509.383 484.639 517.527C484.639 518.101 484.526 518.67 484.306 519.2C484.087 519.731 483.765 520.213 483.359 520.619C482.953 521.025 482.471 521.347 481.94 521.567C481.41 521.786 480.841 521.899 480.267 521.899H389.334C388.756 521.902 388.183 521.789 387.649 521.568C387.115 521.347 386.63 521.022 386.223 520.611C385.816 520.201 385.495 519.713 385.278 519.177C385.062 518.641 384.954 518.068 384.961 517.49C385.268 507.984 387.211 498.602 390.703 489.756C395.864 489.812 396.783 493.752 401.474 497.186Z" fill="#304FFD" stroke="#1E1F2D" stroke-linecap="round" stroke-linejoin="round"/>
<path d="M363.232 521.9H296.618C295.952 521.899 295.306 521.666 294.793 521.242C294.279 520.817 293.929 520.227 293.803 519.573C292.79 514.281 293.015 502.441 299.02 486.716L299.62 454.816L333.734 460.614L329.418 487.823C329.418 487.823 343.154 502.947 349.684 505.65C354.263 507.526 364.696 507.751 366.085 518.785C366.121 519.181 366.075 519.58 365.948 519.957C365.821 520.334 365.617 520.68 365.348 520.974C365.079 521.267 364.752 521.501 364.388 521.66C364.024 521.82 363.63 521.901 363.232 521.9Z" fill="white" stroke="#1E1F2D" stroke-linecap="round" stroke-linejoin="round"/>
<path d="M310.203 497.318C317.24 502.234 322.438 502.816 319.154 495.441C315.87 488.067 329.343 487.804 329.343 487.804C329.343 487.804 343.079 502.929 349.609 505.631C354.188 507.507 364.621 507.732 366.009 518.766C366.057 519.168 366.019 519.575 365.898 519.961C365.776 520.347 365.573 520.703 365.304 521.005C365.034 521.307 364.703 521.547 364.333 521.711C363.963 521.875 363.562 521.959 363.157 521.956H296.543C295.877 521.955 295.231 521.722 294.718 521.298C294.204 520.873 293.854 520.283 293.728 519.629C292.715 514.337 292.94 502.497 298.945 486.772C304.161 487.973 303.223 492.383 310.203 497.318Z" fill="#304FFD" stroke="#1E1F2D" stroke-linecap="round" stroke-linejoin="round"/>
<path d="M369.856 278.278C369.856 278.278 376.574 285.146 404.027 289.537C431.479 293.928 488.468 307.664 487.773 330.181C487.079 352.699 434.594 472.793 434.594 472.793C434.594 472.793 408.324 467.801 396.127 460.295C396.127 460.295 417.274 374.597 433.131 352.08C433.131 352.08 361.956 343.317 322.588 327.066C283.22 310.816 306.375 273.775 306.375 273.775L369.856 278.278Z" fill="#1E1F2D" stroke="#1E1F2D" stroke-linecap="round" stroke-linejoin="round"/>
<path d="M325.215 275.107C325.215 275.107 315.12 291.995 322.663 301.378C330.207 310.76 373.046 328.267 368.205 349.547C363.364 370.826 347.376 400.83 336.962 472.136C336.962 472.136 312.699 468.383 296.449 461.496C296.449 461.496 293.747 388.952 312.605 357.672C312.605 357.672 258.601 347.67 253.121 329.525C247.642 311.379 257.888 283.645 258.094 273.737L325.215 275.107Z" fill="#1E1F2D" stroke="#1E1F2D" stroke-linecap="round" stroke-linejoin="round"/>
<path d="M357.678 301.978C358.928 301.884 360.182 301.884 361.431 301.978" stroke="#7F7F7F" stroke-width="0.75" stroke-linecap="round" stroke-linejoin="round"/>
<path d="M355.239 290.776C355.239 290.776 344.149 294.041 339.795 308.508C339.739 308.746 339.758 308.995 339.852 309.221C339.945 309.447 340.106 309.638 340.314 309.767C340.522 309.895 340.765 309.955 341.008 309.938C341.252 309.921 341.484 309.828 341.672 309.672C344.645 306.613 348.305 304.31 352.349 302.954" stroke="#7F7F7F" stroke-width="0.75" stroke-linecap="round" stroke-linejoin="round"/>
<path d="M438.347 351.291C438.347 345.193 464.618 341.909 457.581 336.28C450.544 330.65 434.594 348.946 434.594 348.946" stroke="#7F7F7F" stroke-width="0.75" stroke-linecap="round" stroke-linejoin="round"/>
<path d="M309.265 375.686C309.265 368.705 334.373 364.896 333.115 357.39C331.858 349.884 315.908 364.671 315.908 364.671" stroke="#7F7F7F" stroke-width="0.75" stroke-linecap="round" stroke-linejoin="round"/>
<path d="M437.372 473.224L434.613 479.604C434.461 479.957 434.19 480.246 433.847 480.421C433.505 480.595 433.112 480.645 432.737 480.561C426.676 479.191 401.381 473.224 392.505 466.844C392.248 466.655 392.052 466.393 391.945 466.092C391.838 465.791 391.824 465.465 391.905 465.155L393.631 458.044C393.689 457.798 393.803 457.569 393.965 457.375C394.126 457.181 394.33 457.027 394.561 456.925C394.792 456.823 395.044 456.777 395.296 456.788C395.548 456.8 395.794 456.87 396.014 456.993C400.011 459.17 411.139 464.367 436.264 470.973C436.494 471.034 436.707 471.145 436.89 471.295C437.074 471.446 437.223 471.635 437.328 471.848C437.432 472.061 437.49 472.294 437.498 472.531C437.506 472.769 437.463 473.005 437.372 473.224Z" fill="#999999" stroke="#1E1F2D" stroke-linecap="round" stroke-linejoin="round"/>
<path d="M339.945 467.97C339.977 467.75 339.952 467.526 339.871 467.318C339.791 467.111 339.659 466.928 339.487 466.786C339.316 466.645 339.111 466.55 338.892 466.511C338.673 466.472 338.448 466.49 338.238 466.563C335.189 467.514 331.93 467.56 328.855 466.694C321.894 465.118 301.984 458.813 296.055 456.918C295.86 456.856 295.654 456.841 295.452 456.873C295.251 456.906 295.06 456.986 294.895 457.107C294.73 457.228 294.597 457.386 294.505 457.568C294.413 457.751 294.365 457.952 294.366 458.156V466.45C294.364 466.701 294.436 466.947 294.572 467.157C294.709 467.368 294.905 467.533 295.135 467.633C299.789 469.715 324.727 480.393 337.769 477.484C338.023 477.424 338.253 477.288 338.428 477.093C338.602 476.899 338.713 476.655 338.744 476.396L339.945 467.97Z" fill="#999999" stroke="#1E1F2D" stroke-linecap="round" stroke-linejoin="round"/>
<path d="M319.867 294.209C320.049 296.803 320.996 299.285 322.588 301.34C328.105 308.189 352.368 319.354 363.232 333.24" stroke="#7F7F7F" stroke-linecap="round" stroke-linejoin="round"/>
<path d="M321.05 284.827C320.63 286.21 320.31 287.621 320.093 289.049" stroke="#7F7F7F" stroke-linecap="round" stroke-linejoin="round"/>
<path d="M464.749 507.038C463.217 509.83 462.111 512.834 461.465 515.951H393.706C393.455 512.999 392.118 510.244 389.953 508.22" stroke="#1E1F2D" stroke-linecap="round" stroke-linejoin="round"/>
<path d="M347.001 507.038C347.001 507.038 337.618 507.751 334.109 515.951H298.682C297.613 513.503 296.978 510.887 296.805 508.22" stroke="#1E1F2D" stroke-linecap="round" stroke-linejoin="round"/>
<path d="M402.544 172.239C401.681 175.542 400.78 178.826 399.879 182.035C390.497 215.811 378.3 280.08 378.3 280.08C318.253 292.746 254.923 280.08 254.923 280.08C254.585 266.081 256.293 247.598 258.188 228.177C248.355 225.456 241.3 216.374 240.849 201.268C240.38 182.973 243.701 150.041 245.54 134.654C247.173 121.125 246.009 113.075 266.97 102.754C277.478 96.693 294.929 93.822 316.377 90.951C358.597 85.3216 389.071 93.8595 399.879 98.4569C408.455 96.2051 410.838 106.263 410.838 106.263C415.585 102.679 421.102 117.878 421.102 117.878C434.988 135.592 445.909 165.428 449.549 176.049C450.355 178.371 451.831 180.402 453.79 181.884C463.642 189.39 458.162 198.679 458.162 198.679L437.99 204.852C437.99 204.852 428.214 207.404 420.746 194.551C414.516 183.817 404.308 165.597 402.544 172.239Z" fill="#304FFD"/>
<mask id="mask0_2666_78" style="mask-type:luminance" maskUnits="userSpaceOnUse" x="240" y="89" width="220" height="197">
<path d="M402.544 172.239C401.681 175.542 400.78 178.826 399.879 182.035C390.497 215.811 378.3 280.08 378.3 280.08C318.253 292.746 254.923 280.08 254.923 280.08C254.585 266.081 256.293 247.598 258.188 228.177C248.355 225.456 241.3 216.374 240.849 201.268C240.38 182.973 243.701 150.041 245.54 134.654C247.173 121.125 246.009 113.075 266.97 102.754C277.478 96.693 294.929 93.822 316.377 90.951C358.597 85.3216 389.071 93.8595 399.879 98.4569C408.455 96.2051 410.838 106.263 410.838 106.263C415.585 102.679 421.102 117.878 421.102 117.878C434.988 135.592 445.909 165.428 449.549 176.049C450.355 178.371 451.831 180.402 453.79 181.884C463.642 189.39 458.162 198.679 458.162 198.679L437.99 204.852C437.99 204.852 428.214 207.404 420.746 194.551C414.516 183.817 404.308 165.597 402.544 172.239Z" fill="white"/>
</mask>
<g mask="url(#mask0_2666_78)">
<path opacity="0.3" d="M434.275 196.389C434.275 196.389 434.744 187.007 442.25 185.375C449.756 183.742 440.149 180.927 434.275 182.335C428.402 183.742 429.772 178.582 424.743 170.138C419.714 161.694 417.237 155.013 412.996 159.874C408.755 164.734 404.346 165.503 402.544 172.146C400.743 178.788 409.656 194.663 409.656 194.663L423.655 205.528L430.766 209.506H441.368L445.009 200.33L434.275 196.389Z" fill="#1E1F2D"/>
</g>
<path d="M402.544 172.239C401.681 175.542 400.78 178.826 399.879 182.035C390.497 215.811 378.3 280.08 378.3 280.08C318.253 292.746 254.923 280.08 254.923 280.08C254.585 266.081 256.293 247.598 258.188 228.177C248.355 225.456 241.3 216.374 240.849 201.268C240.38 182.973 243.701 150.041 245.54 134.654C247.173 121.125 246.009 113.075 266.97 102.754C277.478 96.693 294.929 93.822 316.377 90.951C358.597 85.3216 389.071 93.8595 399.879 98.4569C408.455 96.2051 410.838 106.263 410.838 106.263C415.585 102.679 421.102 117.878 421.102 117.878C434.988 135.592 445.909 165.428 449.549 176.049C450.355 178.371 451.831 180.402 453.79 181.884C463.642 189.39 458.162 198.679 458.162 198.679L437.99 204.852C437.99 204.852 428.214 207.404 420.746 194.551C414.516 183.817 404.308 165.597 402.544 172.239Z" stroke="#1E1F2D" stroke-linecap="round" stroke-linejoin="round"/>
<path opacity="0.3" d="M254.923 279.986C254.875 267.929 255.47 255.877 256.706 243.883C254.66 272.461 314.163 281.412 316.04 265.913C317.916 250.413 258.188 228.083 290.689 235.889C319.042 242.701 374.004 236.189 387.514 234.425C382.316 258.819 378.301 279.986 378.301 279.986C318.254 292.652 254.923 279.986 254.923 279.986Z" fill="#1E1F2D"/>
<path opacity="0.3" d="M282.207 136.437C282.207 136.437 290.707 161.3 290.688 174.435C290.67 187.57 314.501 196.39 314.557 196.39C301.778 193.8 289.356 190.366 283.427 188.64C282.405 188.351 281.517 187.715 280.914 186.842C280.311 185.968 280.032 184.912 280.124 183.855C281.638 168.095 282.333 152.268 282.207 136.437Z" fill="#1E1F2D"/>
<path d="M410.406 130.188C410.326 141.904 408.211 153.516 404.158 164.508C404.04 164.831 404.028 165.182 404.124 165.512C404.22 165.841 404.418 166.131 404.69 166.341C404.962 166.55 405.293 166.667 405.636 166.675C405.979 166.683 406.316 166.581 406.597 166.385C409.825 164.077 414.385 159.386 418.494 149.928" stroke="#1E1F2D" stroke-width="0.75" stroke-linecap="round" stroke-linejoin="round"/>
<path d="M251.17 206.804C256.124 190.385 264.699 186.275 271.342 185.863C271.547 185.833 271.739 185.744 271.893 185.606C272.048 185.468 272.158 185.287 272.21 185.087C272.262 184.886 272.254 184.675 272.186 184.479C272.119 184.283 271.995 184.112 271.83 183.986C267.964 181.903 260.44 180.233 251.189 190.479" stroke="#1E1F2D" stroke-width="0.75" stroke-linecap="round" stroke-linejoin="round"/>
<path d="M346.363 159.817C346.443 160.508 346.774 161.145 347.293 161.607C347.812 162.07 348.483 162.325 349.178 162.325C349.873 162.325 350.544 162.07 351.063 161.607C351.582 161.145 351.913 160.508 351.993 159.817C352.038 159.42 352 159.018 351.879 158.637C351.759 158.256 351.559 157.905 351.293 157.607C351.028 157.308 350.702 157.07 350.337 156.906C349.972 156.743 349.577 156.658 349.178 156.658C348.778 156.658 348.383 156.743 348.019 156.906C347.654 157.07 347.328 157.308 347.062 157.607C346.797 157.905 346.597 158.256 346.476 158.637C346.356 159.018 346.317 159.42 346.363 159.817Z" fill="#999999" stroke="#1E1F2D" stroke-width="0.75" stroke-linecap="round" stroke-linejoin="round"/>
<path d="M342.554 191.755C342.554 192.311 342.719 192.855 343.028 193.318C343.337 193.781 343.777 194.142 344.291 194.355C344.805 194.568 345.371 194.624 345.917 194.515C346.463 194.407 346.965 194.139 347.359 193.745C347.752 193.351 348.02 192.85 348.129 192.304C348.237 191.758 348.182 191.192 347.969 190.677C347.756 190.163 347.395 189.724 346.932 189.414C346.469 189.105 345.925 188.94 345.368 188.94C344.622 188.94 343.906 189.236 343.378 189.764C342.85 190.292 342.554 191.008 342.554 191.755Z" fill="#999999" stroke="#1E1F2D" stroke-width="0.75" stroke-linecap="round" stroke-linejoin="round"/>
<path d="M333.115 268.727C333.111 269.288 333.274 269.838 333.584 270.306C333.893 270.775 334.334 271.141 334.851 271.358C335.369 271.576 335.939 271.634 336.49 271.527C337.041 271.42 337.547 271.152 337.945 270.756C338.344 270.361 338.615 269.856 338.726 269.306C338.837 268.755 338.782 268.185 338.568 267.666C338.354 267.147 337.991 266.704 337.525 266.391C337.058 266.079 336.51 265.913 335.949 265.913C335.2 265.912 334.483 266.208 333.952 266.736C333.421 267.263 333.12 267.979 333.115 268.727Z" fill="#999999" stroke="#1E1F2D" stroke-linecap="round" stroke-linejoin="round"/>
<path d="M387.007 212.677C387.007 212.677 396.221 221.459 391.83 221.609C387.439 221.759 381.903 215.717 376.818 215.023C371.733 214.328 379.952 211.27 379.952 211.27L387.007 212.677Z" fill="white" stroke="#1E1F2D" stroke-linecap="round" stroke-linejoin="round"/>
<path d="M333.209 202.788C333.622 202.418 334.107 202.137 334.633 201.963C335.159 201.789 335.716 201.725 336.268 201.775C340.771 202.15 353.719 203.126 358.598 202.826C367.267 202.282 392.806 196.878 392.806 196.878C393.393 196.777 393.996 196.81 394.57 196.971L410.388 201.625C410.964 201.792 411.492 202.094 411.927 202.507L421.497 211.289C421.811 211.583 422.077 211.925 422.285 212.302L424.274 215.942C424.685 216.69 424.839 217.552 424.714 218.396C424.589 219.239 424.19 220.019 423.58 220.615L407.78 221.028C406.803 221.074 405.847 220.737 405.115 220.089L400.424 216.074C400.111 215.802 399.839 215.486 399.617 215.135C398.473 213.259 393.988 207.067 387.045 207.63C387.045 207.63 402.057 215.605 399.223 218.888C396.39 222.172 384.906 212.79 381.153 213.728C377.4 214.666 377.156 223.88 356.759 220.54C355.847 220.386 354.912 220.43 354.019 220.671L335.442 225.869C334.892 226.021 334.316 226.063 333.749 225.99C333.182 225.917 332.635 225.732 332.141 225.446C331.646 225.159 331.214 224.777 330.869 224.321C330.524 223.865 330.273 223.345 330.132 222.791C328.687 217.462 327.411 208.08 333.209 202.788Z" fill="white" stroke="#1E1F2D" stroke-linecap="round" stroke-linejoin="round"/>
<path d="M390.591 200.236L394.569 200.912C396.509 201.24 398.321 202.097 399.805 203.389L404.027 207.01C404.746 207.657 405.376 208.395 405.903 209.206L408.624 213.353C408.919 213.811 409.252 214.244 409.619 214.647C411.232 216.524 415.68 221.722 410.876 221.009" fill="white"/>
<path d="M390.591 200.236L394.569 200.912C396.509 201.24 398.321 202.097 399.805 203.389L404.027 207.01C404.746 207.657 405.376 208.395 405.903 209.206L408.624 213.353C408.919 213.811 409.252 214.244 409.619 214.647C411.232 216.524 415.68 221.722 410.876 221.009" stroke="#1E1F2D" stroke-linecap="round" stroke-linejoin="round"/>
<path d="M401.793 201.644L405.903 202.769C407.187 203.083 408.365 203.731 409.318 204.646L412.527 207.723C412.843 208.003 413.126 208.318 413.371 208.662L418.644 215.661C418.644 215.661 421.459 220.615 418.644 220.708" fill="white"/>
<path d="M401.793 201.644L405.903 202.769C407.187 203.083 408.365 203.731 409.318 204.646L412.527 207.723C412.843 208.003 413.126 208.318 413.371 208.662L418.644 215.661C418.644 215.661 421.459 220.615 418.644 220.708" stroke="#1E1F2D" stroke-linecap="round" stroke-linejoin="round"/>
<path d="M282.057 132.458C282.455 149.613 281.829 166.775 280.18 183.855C280.088 184.912 280.367 185.968 280.97 186.842C281.573 187.715 282.461 188.351 283.483 188.64C298.402 193.051 313.597 196.468 328.968 198.867" stroke="#1E1F2D" stroke-linecap="round" stroke-linejoin="round"/>
<path d="M281.156 120.825C281.4 122.701 281.606 124.746 281.756 126.829" stroke="#1E1F2D" stroke-width="0.75" stroke-linecap="round" stroke-linejoin="round"/>
<path d="M274.87 103.261C277.009 105.137 278.623 108.534 279.73 113.037" stroke="#1E1F2D" stroke-width="0.75" stroke-linecap="round" stroke-linejoin="round"/>
<path d="M368.824 92.1145C368.824 92.1145 367.642 88.3615 361.318 86.2411C354.994 84.1207 333.059 80.7619 321.781 86.2411C310.504 91.7204 332.102 121.537 332.102 121.537L342.103 135.386L351.016 142.066L354.994 130.188L360.155 124.821C360.155 124.821 371.301 115.683 370.363 106.657C369.424 97.6313 368.824 92.1145 368.824 92.1145Z" fill="white"/>
<path d="M313.45 91.3263C315.214 85.1527 323.264 83.4264 323.264 83.4264C361.731 76.8587 369.856 90.9322 369.856 90.9322C374.573 103.644 374.573 117.626 369.856 130.338C369.856 130.338 358.916 125.797 357.04 130.338C355.163 134.879 351.73 144.562 351.73 144.562C346.507 141.619 341.952 137.625 338.35 132.834C332.402 125.009 318.441 132.834 318.441 132.834C309.397 117.203 313.45 91.3263 313.45 91.3263ZM322.832 90.8759C337.731 137.637 350.866 139.664 350.866 139.664C355.239 122.476 358.991 126.229 364.94 115.476C369.706 106.845 368.092 95.9236 367.267 91.9267C367.17 91.4497 366.968 91.0002 366.676 90.6108C366.384 90.2213 366.009 89.9017 365.578 89.675C350.791 82.1691 332.702 84.9275 325.253 86.5601C324.792 86.6554 324.356 86.8472 323.974 87.1227C323.593 87.3983 323.274 87.7514 323.038 88.1589C322.802 88.5664 322.655 89.0191 322.607 89.4874C322.559 89.9556 322.61 90.4288 322.757 90.8759H322.832Z" fill="#304FFD"/>
<mask id="mask1_2666_78" style="mask-type:luminance" maskUnits="userSpaceOnUse" x="312" y="81" width="62" height="64">
<path d="M313.45 91.3263C315.214 85.1527 323.264 83.4264 323.264 83.4264C361.731 76.8587 369.856 90.9322 369.856 90.9322C374.573 103.644 374.573 117.626 369.856 130.338C369.856 130.338 358.916 125.797 357.04 130.338C355.163 134.879 351.73 144.562 351.73 144.562C346.507 141.619 341.952 137.625 338.35 132.834C332.402 125.009 318.441 132.834 318.441 132.834C309.397 117.203 313.45 91.3263 313.45 91.3263ZM322.832 90.8759C337.731 137.637 350.866 139.664 350.866 139.664C355.239 122.476 358.991 126.229 364.94 115.476C369.706 106.845 368.092 95.9236 367.267 91.9267C367.17 91.4497 366.968 91.0002 366.676 90.6108C366.384 90.2213 366.009 89.9017 365.578 89.675C350.791 82.1691 332.702 84.9275 325.253 86.5601C324.792 86.6554 324.356 86.8472 323.974 87.1227C323.593 87.3983 323.274 87.7514 323.038 88.1589C322.802 88.5664 322.655 89.0191 322.607 89.4874C322.559 89.9556 322.61 90.4288 322.757 90.8759H322.832Z" fill="white"/>
</mask>
<g mask="url(#mask1_2666_78)">
<path opacity="0.4" d="M313.45 91.3263C315.214 85.1527 323.264 83.4264 323.264 83.4264C361.731 76.8587 369.856 90.9322 369.856 90.9322C374.573 103.644 374.573 117.626 369.856 130.338C369.856 130.338 358.916 125.797 357.04 130.338C355.163 134.879 351.73 144.562 351.73 144.562C346.507 141.619 341.952 137.625 338.35 132.834C332.402 125.009 318.441 132.834 318.441 132.834C309.397 117.203 313.45 91.3263 313.45 91.3263ZM322.832 90.8759C337.731 137.637 350.866 139.664 350.866 139.664C355.239 122.476 358.991 126.229 364.94 115.476C369.706 106.845 368.092 95.9236 367.267 91.9267C367.17 91.4497 366.968 91.0002 366.676 90.6108C366.384 90.2213 366.009 89.9017 365.578 89.675C350.791 82.1691 332.702 84.9275 325.253 86.5601C324.792 86.6554 324.356 86.8472 323.974 87.1227C323.593 87.3983 323.274 87.7514 323.038 88.1589C322.802 88.5664 322.655 89.0191 322.607 89.4874C322.559 89.9556 322.61 90.4288 322.757 90.8759H322.832Z" fill="white"/>
</g>
<path d="M313.45 91.3263C315.214 85.1527 323.264 83.4264 323.264 83.4264C361.731 76.8587 369.856 90.9322 369.856 90.9322C374.573 103.644 374.573 117.626 369.856 130.338C369.856 130.338 358.916 125.797 357.04 130.338C355.163 134.879 351.73 144.562 351.73 144.562C346.507 141.619 341.952 137.625 338.35 132.834C332.402 125.009 318.441 132.834 318.441 132.834C309.397 117.203 313.45 91.3263 313.45 91.3263ZM322.832 90.8759C337.731 137.637 350.866 139.664 350.866 139.664C355.239 122.476 358.991 126.229 364.94 115.476C369.706 106.845 368.092 95.9236 367.267 91.9267C367.17 91.4497 366.968 91.0002 366.676 90.6108C366.384 90.2213 366.009 89.9017 365.578 89.675C350.791 82.1691 332.702 84.9275 325.253 86.5601C324.792 86.6554 324.356 86.8472 323.974 87.1227C323.593 87.3983 323.274 87.7514 323.038 88.1589C322.802 88.5664 322.655 89.0191 322.607 89.4874C322.559 89.9556 322.61 90.4288 322.757 90.8759H322.832Z" stroke="#1E1F2D" stroke-linecap="round" stroke-linejoin="round"/>
<path d="M376.255 19.8705C376.255 19.8705 409.412 26.5132 391.154 48.0175C370.907 71.9799 376.255 19.8705 376.255 19.8705Z" fill="#1E1F2D" stroke="#1E1F2D" stroke-linecap="round" stroke-linejoin="round"/>
<path d="M389.334 72.4868C389.334 72.4868 397.215 40.5869 382.203 25.2562C367.191 9.92548 350.923 6.81055 338.725 14.3164C326.528 21.8223 321.462 40.5869 323.338 50.2694C325.215 59.952 324.314 94.6666 341.034 109.059C357.753 123.452 368.036 119.905 379.088 100.296C386.425 87.4422 389.897 83.7455 389.334 72.4868Z" fill="white" stroke="#1E1F2D" stroke-linecap="round" stroke-linejoin="round"/>
<path d="M331.22 66.2381C331.22 66.2381 343.83 53.7221 347.695 39.0294C351.561 24.3367 353.738 21.8222 368.13 29.0091C382.523 36.1959 404.965 26.5321 399.092 8.36795C392.918 -10.6969 374.06 13.9973 355.933 7.74872C337.807 1.50009 324.915 12.7589 324.896 29.328C324.896 29.328 313.938 39.9676 324.896 67.4766L331.22 66.2381Z" fill="#1E1F2D" stroke="#1E1F2D" stroke-linecap="round" stroke-linejoin="round"/>
<path d="M335.179 64.1364C335.179 64.1364 331.989 46.6478 323.132 48.2615C314.275 49.8753 320.599 75.6955 331.032 72.8808" fill="white"/>
<path d="M335.179 64.1364C335.179 64.1364 331.989 46.6478 323.132 48.2615C314.275 49.8753 320.599 75.6955 331.032 72.8808" stroke="#1E1F2D" stroke-linecap="round" stroke-linejoin="round"/>
<path d="M377.343 70.0661C377.343 70.0661 380.834 86.2975 379.689 89.0747C378.544 91.8518 367.83 89.7314 367.83 89.7314" fill="white"/>
<path d="M377.343 70.0661C377.343 70.0661 380.834 86.2975 379.689 89.0747C378.544 91.8518 367.83 89.7314 367.83 89.7314" stroke="#1E1F2D" stroke-linecap="round" stroke-linejoin="round"/>
<path d="M366.328 96.8057C366.328 96.8057 357.922 100.127 350.51 89.0746Z" fill="white"/>
<path d="M366.328 96.8057C366.328 96.8057 357.922 100.127 350.51 89.0746" stroke="#1E1F2D" stroke-linecap="round" stroke-linejoin="round"/>
<path d="M383.104 71.4169C382.804 72.9181 383.198 74.2879 383.986 74.4567C384.774 74.6256 385.694 73.5373 386.013 72.0173C386.332 70.4974 386.013 69.1464 385.131 68.9775C384.249 68.8086 383.386 69.897 383.104 71.4169Z" fill="#1E1F2D"/>
<path d="M362.538 69.7656C362.219 71.2668 362.538 72.6366 363.42 72.8055C364.302 72.9744 365.109 71.8673 365.428 70.3661C365.747 68.865 365.428 67.4951 364.546 67.3262C363.664 67.1574 362.744 68.2457 362.538 69.7656Z" fill="#1E1F2D"/>
<path d="M378.788 70.7041C378.356 74.9636 382.541 78.8667 388.32 79.4296C394.1 79.9925 398.979 77.0278 399.41 72.7682C399.842 68.5086 395.357 66.6509 389.653 66.0692C383.948 65.4875 379.201 66.4633 378.788 70.7041Z" stroke="#1E1F2D" stroke-linecap="round" stroke-linejoin="round"/>
<path d="M352.236 68.0581C351.805 72.2989 356.083 76.2207 361.769 76.7837C367.454 77.3466 372.427 74.363 372.859 70.1222C373.29 65.8814 368.805 63.9862 363.101 63.4232C357.396 62.8603 352.649 63.7985 352.236 68.0581Z" stroke="#1E1F2D" stroke-linecap="round" stroke-linejoin="round"/>
<path d="M378.788 70.7043L372.859 70.1226" stroke="#1E1F2D" stroke-linecap="round" stroke-linejoin="round"/>
<path d="M352.949 65.9191L331.145 53.0653" stroke="#1E1F2D" stroke-linecap="round" stroke-linejoin="round"/>
<path d="M327.41 85.9407L326.378 88.4364" stroke="#1E1F2D" stroke-linecap="round" stroke-linejoin="round"/>
<path d="M391.079 63.8549C391.079 63.8549 387.758 59.6329 383.686 61.6595Z" fill="white"/>
<path d="M391.079 63.8549C391.079 63.8549 387.758 59.6329 383.686 61.6595" stroke="#1E1F2D" stroke-linecap="round" stroke-linejoin="round"/>
<path d="M357.115 61.9596C357.115 61.9596 362.951 56.3303 368.58 60.3084Z" fill="white"/>
<path d="M357.115 61.9596C357.115 61.9596 362.951 56.3303 368.58 60.3084" stroke="#1E1F2D" stroke-linecap="round" stroke-linejoin="round"/>
<path d="M383.704 10.4884C374.829 13.3031 359.892 16.7558 347.695 13.0591C328.93 7.42973 335.367 28.4461 331.145 34.2444" stroke="#7F7F7F" stroke-linecap="round" stroke-linejoin="round"/>
<path d="M391.398 7.67357C391.398 7.67357 389.916 8.33033 387.383 9.23104" stroke="#7F7F7F" stroke-linecap="round" stroke-linejoin="round"/>
<path d="M368.975 20.9401C367.98 20.6399 366.948 20.2833 365.86 19.8705" stroke="#7F7F7F" stroke-linecap="round" stroke-linejoin="round"/>
<path d="M389.334 18.4632C389.334 18.4632 385.356 24.5992 372.558 21.8783" stroke="#7F7F7F" stroke-linecap="round" stroke-linejoin="round"/>
<path d="M341.672 30.4916C340.682 37.7348 337.952 44.6304 333.716 50.5885" stroke="#7F7F7F" stroke-linecap="round" stroke-linejoin="round"/>
<path d="M342.103 23.8489C342.129 24.9697 342.091 26.0911 341.991 27.2078" stroke="#7F7F7F" stroke-linecap="round" stroke-linejoin="round"/>
<path opacity="0.3" d="M325.478 225.156C325.82 225.442 326.066 225.827 326.183 226.258C326.3 226.689 326.281 227.145 326.129 227.565C325.978 227.985 325.701 228.348 325.336 228.605C324.971 228.862 324.536 229.001 324.089 229.002C311.404 229.002 277.178 229.153 264.042 228.383C247.623 227.445 260.158 209.619 273.425 216.411C285.453 222.698 311.048 212.227 325.478 225.156Z" fill="#1E1F2D"/>
<path d="M468.371 207.555C468.371 207.555 460.696 187.12 441.444 190.366C422.191 193.612 436.903 209.731 446.172 211.157C446.172 211.157 447.58 205.547 468.371 207.555Z" fill="white" stroke="#1E1F2D" stroke-linecap="round" stroke-linejoin="round"/>
<path d="M484.714 219.151C487.247 221.684 493.346 221.909 489.237 216.411C485.875 211.989 481.317 208.622 476.101 206.71C466.982 202.638 463.416 203.464 455.16 201.644C446.904 199.823 445.346 203.201 442.494 204.759C435.682 208.512 434.05 209.15 432.323 212.902C430.597 216.655 428.721 221.534 434.05 221.534C438.891 221.534 439.21 213.522 443.901 213.841C448.592 214.16 450.938 221.534 454.222 221.534H455.46C458.275 221.534 458.425 219.189 456.717 215.511C455.01 211.833 453.115 208.512 453.115 208.512C455.901 209.979 458.128 212.319 459.457 215.173C461.709 219.958 462.122 221.966 466.269 221.966C470.416 221.966 470.022 218.888 466.006 212.096C468.391 213.524 470.363 215.548 471.729 217.969C473.756 221.722 474.825 221.534 477.471 221.534C480.961 221.534 480.717 215.792 474.544 212.039C474.506 212.039 475.876 210.35 484.714 219.151Z" fill="white" stroke="#1E1F2D" stroke-linecap="round" stroke-linejoin="round"/>
<path d="M460.546 205.434C460.546 205.434 462.966 205.321 464.505 209.412Z" fill="white"/>
<path d="M460.546 205.434C460.546 205.434 462.966 205.321 464.505 209.412" stroke="#1E1F2D" stroke-width="0.75" stroke-linecap="round" stroke-linejoin="round"/>
<path d="M593.118 522.218H600.079L601.956 245.89H593.118V522.218Z" fill="#858585" stroke="#1E1F2D" stroke-linecap="round" stroke-linejoin="round"/>
<path d="M586.175 522.218H593.118V245.89H584.298L586.175 522.218Z" fill="#999999" stroke="#1E1F2D" stroke-linecap="round" stroke-linejoin="round"/>
<path d="M195.758 228.983H672.773V245.909H195.758V228.983Z" fill="#1E1F2D" stroke="#1E1F2D" stroke-linecap="round" stroke-linejoin="round"/>
<path d="M96.0801 228.983H202.888V245.909H96.0801V228.983Z" fill="#858585" stroke="#1E1F2D" stroke-linecap="round" stroke-linejoin="round"/>
<path d="M174.122 245.89H648.342V273.774H174.122V245.89Z" fill="#3B3C41" stroke="#1E1F2D" stroke-miterlimit="10"/>
<path d="M174.122 273.793H118.898V245.909H174.122V273.793Z" fill="#3B3C41"/>
<mask id="mask2_2666_78" style="mask-type:luminance" maskUnits="userSpaceOnUse" x="118" y="245" width="57" height="29">
<path d="M174.122 273.793H118.898V245.909H174.122V273.793Z" fill="white"/>
</mask>
<g mask="url(#mask2_2666_78)">
<path opacity="0.3" d="M174.122 273.793H118.898V245.909H174.122V273.793Z" fill="#1E1F2D"/>
</g>
<path d="M174.122 273.793H118.898V245.909H174.122V273.793Z" stroke="#1E1F2D" stroke-miterlimit="10"/>
<path d="M174.122 522.218H181.065L182.941 245.89H174.122V522.218Z" fill="#858585" stroke="#1E1F2D" stroke-linecap="round" stroke-linejoin="round"/>
<path d="M167.16 522.218H174.122V245.89H165.284L167.16 522.218Z" fill="#999999" stroke="#1E1F2D" stroke-linecap="round" stroke-linejoin="round"/>
<path d="M648.342 522.218H655.303L657.18 245.89H648.342V522.218Z" fill="#858585" stroke="#1E1F2D" stroke-linecap="round" stroke-linejoin="round"/>
<path d="M641.399 522.218H648.342V245.89H639.522L641.399 522.218Z" fill="#999999" stroke="#1E1F2D" stroke-linecap="round" stroke-linejoin="round"/>
<path d="M118.898 522.218H125.859L127.736 245.89H118.898V522.218Z" fill="#858585" stroke="#1E1F2D" stroke-linecap="round" stroke-linejoin="round"/>
<path d="M111.955 522.218H118.898V245.89H110.078L111.955 522.218Z" fill="#999999" stroke="#1E1F2D" stroke-linecap="round" stroke-linejoin="round"/>
<path d="M364.527 227.107H420.427C420.976 227.102 421.501 226.88 421.887 226.49C422.274 226.1 422.491 225.573 422.491 225.024V220.408L362.444 222.284V225.024C362.444 225.576 362.663 226.106 363.054 226.497C363.445 226.887 363.975 227.107 364.527 227.107Z" fill="#858585" stroke="#1E1F2D" stroke-linecap="round" stroke-linejoin="round"/>
<path d="M428.739 227.107H541.121C542.045 227.072 542.937 226.752 543.672 226.191C544.408 225.63 544.952 224.855 545.23 223.973L569.362 145.649C569.542 145.192 569.607 144.697 569.548 144.209C569.49 143.721 569.312 143.255 569.029 142.853C568.746 142.451 568.368 142.126 567.928 141.907C567.488 141.687 567.001 141.58 566.509 141.596H454.128C453.205 141.627 452.314 141.943 451.578 142.501C450.842 143.059 450.297 143.831 450.019 144.711L425.887 223.035C425.708 223.493 425.644 223.989 425.702 224.477C425.761 224.966 425.939 225.433 426.221 225.836C426.504 226.239 426.881 226.566 427.321 226.788C427.76 227.009 428.247 227.119 428.739 227.107Z" fill="#999999" stroke="#1E1F2D" stroke-linecap="round" stroke-linejoin="round"/>
<path d="M420.914 223.035L445.046 144.711C445.324 143.831 445.869 143.059 446.605 142.501C447.341 141.943 448.232 141.627 449.155 141.596H454.128C453.205 141.627 452.314 141.943 451.578 142.501C450.842 143.059 450.297 143.831 450.018 144.711L425.887 223.035C425.707 223.493 425.644 223.989 425.702 224.477C425.76 224.966 425.938 225.433 426.221 225.836C426.503 226.239 426.881 226.566 427.32 226.788C427.76 227.01 428.247 227.119 428.739 227.107H423.691C423.206 227.107 422.727 226.988 422.298 226.761C421.869 226.534 421.501 226.206 421.227 225.804C420.954 225.403 420.782 224.941 420.728 224.458C420.673 223.976 420.737 223.487 420.914 223.035Z" fill="#858585" stroke="#1E1F2D" stroke-linecap="round" stroke-linejoin="round"/>
<path d="M490.662 184.342C490.525 185.214 490.58 186.106 490.825 186.955C491.071 187.803 491.499 188.587 492.081 189.251C492.663 189.915 493.384 190.444 494.193 190.798C495.001 191.153 495.878 191.326 496.761 191.304C498.676 191.256 500.511 190.529 501.941 189.255C503.37 187.98 504.301 186.239 504.567 184.342C504.705 183.471 504.65 182.58 504.404 181.732C504.159 180.885 503.73 180.102 503.148 179.439C502.566 178.776 501.844 178.249 501.036 177.897C500.227 177.544 499.35 177.374 498.468 177.399C496.558 177.45 494.726 178.175 493.298 179.445C491.87 180.716 490.936 182.45 490.662 184.342Z" fill="white" stroke="#1E1F2D" stroke-linecap="round" stroke-linejoin="round"/>
</svg>
