<svg width="32" height="32" viewBox="0 0 32 32" fill="none" xmlns="http://www.w3.org/2000/svg">
<circle cx="16" cy="16" r="16" fill="#50A5F1"/>
<path d="M22.9733 12.0001C22.4599 12.2334 21.9066 12.3867 21.3333 12.4601C21.9199 12.1067 22.3733 11.5467 22.5866 10.8734C22.0333 11.2067 21.4199 11.4401 20.7733 11.5734C20.2466 11.0001 19.5066 10.6667 18.6666 10.6667C17.0999 10.6667 15.8199 11.9467 15.8199 13.5267C15.8199 13.7534 15.8466 13.9734 15.8933 14.1801C13.5199 14.0601 11.4066 12.9201 9.99994 11.1934C9.75328 11.6134 9.61328 12.1067 9.61328 12.6267C9.61328 13.6201 10.1133 14.5001 10.8866 15.0001C10.4133 15.0001 9.97328 14.8667 9.58661 14.6667C9.58661 14.6667 9.58661 14.6667 9.58661 14.6867C9.58661 16.0734 10.5733 17.2334 11.8799 17.4934C11.6399 17.5601 11.3866 17.5934 11.1266 17.5934C10.9466 17.5934 10.7666 17.5734 10.5933 17.5401C10.9533 18.6667 11.9999 19.5067 13.2599 19.5267C12.2866 20.3001 11.0533 20.7534 9.70661 20.7534C9.47994 20.7534 9.25328 20.7401 9.02661 20.7134C10.2933 21.5267 11.7999 22.0001 13.4133 22.0001C18.6666 22.0001 21.5533 17.6401 21.5533 13.8601C21.5533 13.7334 21.5533 13.6134 21.5466 13.4867C22.1066 13.0867 22.5866 12.5801 22.9733 12.0001Z" fill="white"/>
</svg>
