<svg width="30" height="30" viewBox="0 0 30 30" fill="none" xmlns="http://www.w3.org/2000/svg">
<path d="M15 29.9998C23.2616 29.9998 30 23.2616 30 15C30 6.73822 23.2618 0 15 0C6.73822 0 0 6.73822 0 14.9999C0 23.2615 6.73822 29.9998 15 29.9998Z" fill="#304FFD"/>
<path d="M18.6345 5.28089L15.8076 20.6271L17.8269 21.0309C22.1009 17.9011 23.935 5.28089 18.6345 5.28089Z" fill="#4E1E30"/>
<path d="M18.6348 5.2809C17.928 4.85178 14.198 3.762 11.3655 5.2809C7.88235 7.14869 4.83665 13.829 9.75015 20.6271C9.75714 20.6367 13.3848 20.2232 13.3848 20.2232L18.6348 5.2809Z" fill="#4E1E30"/>
<path fill-rule="evenodd" clip-rule="evenodd" d="M18.635 29.5533C17.4706 29.8449 16.253 29.9998 15.0004 29.9998C13.7477 29.9998 12.5301 29.8449 11.3657 29.5533V21.276C12.1696 20.669 12.1734 19.6656 12.1734 18.7425V17.8002H17.8273V18.7434H17.8492C17.8492 19.6587 17.8517 20.6534 18.635 21.2619V29.5533Z" fill="#FFD7A3"/>
<path fill-rule="evenodd" clip-rule="evenodd" d="M18.231 29.6485C17.1899 29.8785 16.1087 29.9998 15.0002 29.9998C14.1756 29.9998 13.3662 29.9327 12.5771 29.8036V25.9658C13.3124 26.1658 14.1318 26.2809 15.0002 26.2809C16.2025 26.2809 17.3148 26.0649 18.231 25.6993V29.6485Z" fill="#0090FF"/>
<path d="M18.2311 23.0502C18.3784 23.0904 18.5111 23.1118 18.6349 23.1222V21.2619C17.8517 20.6534 17.8491 19.6586 17.8491 18.7434L17.8486 18.72V17.7767L13.3849 17.8001L12.1733 18.2039C12.9811 19.1127 15.4547 22.293 18.2311 23.0502Z" fill="#FDC88E"/>
<path d="M20.6543 12.5501C20.6543 15.7842 17.438 19.8194 15.0005 19.8194C12.5631 19.8194 9.34668 15.7842 9.34668 12.5501C9.34668 9.31604 11.878 8.10775 15.0005 8.10775C18.123 8.10775 20.6543 9.31604 20.6543 12.5501Z" fill="#FFE1B2"/>
<path d="M15.8078 6.08855C15.5809 6.08855 14.8442 6.34349 14.2421 6.56688L14.1924 6.49237C14.1924 6.49237 14.1093 6.55767 13.9655 6.67084C13.6306 6.79801 13.3848 6.8962 13.3848 6.8962L13.4792 7.05368C11.9464 8.26136 8.44917 11.024 8.1347 11.3386C7.73087 11.7424 10.5578 22.0457 10.5578 16.1847C10.5578 11.2881 13.2782 10.3184 15.8078 9.72318C16.952 9.45394 17.2886 8.78087 17.4232 8.10781C17.5578 7.43474 16.2117 6.08855 15.8078 6.08855Z" fill="#4E1E30"/>
<path d="M17.0196 8.51163C17.76 11.1703 19.2407 12.3734 20.629 12.7268C21.3897 12.9204 21.0581 10.5309 21.0581 10.5309C21.0581 10.5309 19.9811 7.77124 19.8465 7.70398C19.712 7.63665 18.635 5.28089 18.635 5.28089L16.2119 7.30015L17.0196 8.51163Z" fill="#4E1E30"/>
<path fill-rule="evenodd" clip-rule="evenodd" d="M13.9163 29.9609L11.809 20.7921C11.4308 21.4066 10.6596 21.8386 9.0771 21.8386H8.94252C6.67617 21.8386 4.80616 23.5358 4.53418 25.7285C6.99762 28.1323 10.2811 29.6993 13.9163 29.9609Z" fill="#FF965D"/>
<path fill-rule="evenodd" clip-rule="evenodd" d="M25.466 25.7285C25.194 23.5357 23.324 21.8386 21.0577 21.8386H20.9231C19.3406 21.8386 18.5695 21.4066 18.1912 20.7921L16.084 29.9609C19.7191 29.6992 23.0026 28.1323 25.466 25.7285Z" fill="#FF965D"/>
<path d="M20.0525 12.587C20.7133 12.4356 21.1462 12.7592 21.1462 13.3947C21.1462 14.2361 20.2576 16.2974 19.3234 15.0101C18.3892 13.7228 20.0525 12.587 20.0525 12.587Z" fill="#FFE1B2"/>
</svg>
